# xmcd
#
# Track frame offsets:
#	150
#	15525
#	33450
#	54450
#	70500
#	92325
#	114075
#	132192
#	149250
#	167925
#	186225
#	208500
#	230100
#	252975
#	274875
#	292950
#
# Disc length: 4157 seconds
#
# Revision: 1
# Processed by: cddbd v1.5.1PL0 Copyright (c) Steve Scherf et al.
# Submitted via: CDex 1.50Beta5
#
DISCID=e1103b10
DTITLE=Various Artist - NEW MUSIC BEST COLLECTION 08
DYEAR=1900
DGENRE=New Age
TTITLE0=玉置浩二/キ・ツ・イ
TTITLE1=安全地帯/Juliet
TTITLE2=安全地帯/微笑みに乾杯
TTITLE3=ヴァージンVS/星空サイクリング
TTITLE4=来生たかお/夢より遠くへ
TTITLE5=来生たかお/夢の途中
TTITLE6=来生たかお/セカンドラブ
TTITLE7=小椋佳/揺れるまなざし
TTITLE8=小椋佳/シクラメンのかほり
TTITLE9=H/想い出がいっぱい
TTITLE10=デイト・オブ・バース/ユー・アー・マイ・シークレット
TTITLE11=デイト・オブ・バース/サマー・オブ・ラブ
TTITLE12=加藤登紀子/時代おくれの酒場
TTITLE13=来生たかお/マイ・ラグジュアリー・ナイト
TTITLE14=玉置浩二/I'm Dandy
TTITLE15=安全地帯/ワインレッドの心
EXTD=
EXTT0=
EXTT1=
EXTT2=
EXTT3=
EXTT4=
EXTT5=
EXTT6=
EXTT7=
EXTT8=
EXTT9=
EXTT10=
EXTT11=
EXTT12=
EXTT13=
EXTT14=
EXTT15=
PLAYORDER=
